# xmcd
#
# Track frame offsets:
#	150
#	8794
#	32093
#	51388
#	70644
#	78316
#	93135
#	112304
#	123423
#	133055
#	147597
#	165721
#	179453
#	195307
#	210743
#	222184
#	239368
#	257723
#
# Disc length: 3608 seconds
#
# Revision: 1
# Processed by: cddbd v1.5.2PL0 Copyright (c) Steve Scherf et al.
# Submitted via: audiograbber 1.83.01
#
DISCID=070e1612
DTITLE=EmiSunshine and The Rain - Black Sunday '35
DYEAR=2013
DGENRE=Bluegrass
TTITLE0=Little Weeping Willow Tree
TTITLE1=Amelia's Song
TTITLE2=White Dress
TTITLE3=Matthew
TTITLE4=Blue for You
TTITLE5=Black Sunday '35
TTITLE6=Sweet Lillie
TTITLE7=Lay Your Burdens Down
TTITLE8=Creole Boy's
TTITLE9=Madelyn's Hill
TTITLE10=Katie Belle
TTITLE11=Hush Little Baby
TTITLE12=Mary don't you weep
TTITLE13=Jesus loves Mama
TTITLE14=Money
TTITLE15=I appreciate what the Lord is Doing, Amen
TTITLE16=My Time to Fly
TTITLE17=The Cannot's
EXTD=
EXTT0=
EXTT1=
EXTT2=
EXTT3=
EXTT4=
EXTT5=
EXTT6=
EXTT7=
EXTT8=
EXTT9=
EXTT10=
EXTT11=
EXTT12=
EXTT13=
EXTT14=
EXTT15=
EXTT16=
EXTT17=
PLAYORDER=
